<mxfile host="Electron" agent="Mozilla/5.0 (Windows NT 10.0; Win64; x64) AppleWebKit/537.36 (KHTML, like Gecko) draw.io/26.0.4 Chrome/128.0.6613.186 Electron/32.2.5 Safari/537.36" version="26.0.4">
  <diagram id="-bH5DYZGIyhIPil38UtS" name="페이지-4">
    <mxGraphModel dx="4372" dy="2070" grid="1" gridSize="10" guides="1" tooltips="1" connect="1" arrows="1" fold="1" page="1" pageScale="1" pageWidth="827" pageHeight="1169" math="0" shadow="0">
      <root>
        <mxCell id="0" />
        <mxCell id="1" parent="0" />
        <mxCell id="9A_v5YNqUFzvsMS7P09c-1" value="인증" style="ellipse;whiteSpace=wrap;html=1;" vertex="1" parent="1">
          <mxGeometry x="330" y="1350" width="120" height="80" as="geometry" />
        </mxCell>
        <mxCell id="9A_v5YNqUFzvsMS7P09c-3" value="게임관리" style="ellipse;whiteSpace=wrap;html=1;" vertex="1" parent="1">
          <mxGeometry x="560" y="1180" width="80" height="50" as="geometry" />
        </mxCell>
        <mxCell id="9A_v5YNqUFzvsMS7P09c-4" value="개인정보" style="ellipse;whiteSpace=wrap;html=1;" vertex="1" parent="1">
          <mxGeometry x="-37.5" y="1640" width="90" height="50" as="geometry" />
        </mxCell>
        <mxCell id="9A_v5YNqUFzvsMS7P09c-5" value="게임 조회" style="ellipse;whiteSpace=wrap;html=1;" vertex="1" parent="1">
          <mxGeometry x="-40" y="1310" width="80" height="40" as="geometry" />
        </mxCell>
        <mxCell id="iMD2MyXFE0gDb0w_mPcm-1" value="회원관리" style="ellipse;whiteSpace=wrap;html=1;" vertex="1" parent="1">
          <mxGeometry x="650" y="1310" width="90" height="50" as="geometry" />
        </mxCell>
        <mxCell id="iMD2MyXFE0gDb0w_mPcm-2" value="구매관리" style="ellipse;whiteSpace=wrap;html=1;" vertex="1" parent="1">
          <mxGeometry x="-42.5" y="1532.5" width="85" height="35" as="geometry" />
        </mxCell>
        <mxCell id="bRRaq2G4HIGHwIeF07wk-1" value="회원" style="shape=umlActor;verticalLabelPosition=bottom;verticalAlign=top;html=1;outlineConnect=0;" vertex="1" parent="1">
          <mxGeometry x="-340" y="1520" width="30" height="60" as="geometry" />
        </mxCell>
        <mxCell id="bRRaq2G4HIGHwIeF07wk-2" value="비회원" style="shape=umlActor;verticalLabelPosition=bottom;verticalAlign=top;html=1;outlineConnect=0;" vertex="1" parent="1">
          <mxGeometry x="-340" y="1200" width="30" height="60" as="geometry" />
        </mxCell>
        <mxCell id="bRRaq2G4HIGHwIeF07wk-5" value="" style="endArrow=classic;html=1;rounded=0;" edge="1" parent="1" source="bRRaq2G4HIGHwIeF07wk-1" target="iMD2MyXFE0gDb0w_mPcm-2">
          <mxGeometry width="50" height="50" relative="1" as="geometry">
            <mxPoint x="110" y="1590" as="sourcePoint" />
            <mxPoint x="160" y="1540" as="targetPoint" />
          </mxGeometry>
        </mxCell>
        <mxCell id="bRRaq2G4HIGHwIeF07wk-6" value="" style="endArrow=classic;html=1;rounded=0;exitX=0.5;exitY=0.5;exitDx=0;exitDy=0;exitPerimeter=0;" edge="1" parent="1" source="bRRaq2G4HIGHwIeF07wk-1" target="9A_v5YNqUFzvsMS7P09c-4">
          <mxGeometry width="50" height="50" relative="1" as="geometry">
            <mxPoint x="110" y="1590" as="sourcePoint" />
            <mxPoint x="-32.24764404072084" y="1660.971666530118" as="targetPoint" />
          </mxGeometry>
        </mxCell>
        <mxCell id="bRRaq2G4HIGHwIeF07wk-7" value="" style="endArrow=classic;html=1;rounded=0;" edge="1" parent="1" source="bRRaq2G4HIGHwIeF07wk-2" target="9A_v5YNqUFzvsMS7P09c-5">
          <mxGeometry width="50" height="50" relative="1" as="geometry">
            <mxPoint x="110" y="1420" as="sourcePoint" />
            <mxPoint x="160" y="1370" as="targetPoint" />
          </mxGeometry>
        </mxCell>
        <mxCell id="bRRaq2G4HIGHwIeF07wk-8" value="회원가입" style="ellipse;whiteSpace=wrap;html=1;" vertex="1" parent="1">
          <mxGeometry x="-37.5" y="1180" width="80" height="40" as="geometry" />
        </mxCell>
        <mxCell id="bRRaq2G4HIGHwIeF07wk-9" value="" style="endArrow=classic;html=1;rounded=0;" edge="1" parent="1" source="bRRaq2G4HIGHwIeF07wk-2" target="bRRaq2G4HIGHwIeF07wk-8">
          <mxGeometry width="50" height="50" relative="1" as="geometry">
            <mxPoint x="110" y="1420" as="sourcePoint" />
            <mxPoint x="160" y="1370" as="targetPoint" />
          </mxGeometry>
        </mxCell>
        <mxCell id="bRRaq2G4HIGHwIeF07wk-10" value="회원&lt;div&gt;[R]회원은 게임목록을 전체조회할 수 있다.&lt;/div&gt;&lt;div&gt;[R]회원은 게임목록을 키워드조회할 수 있다.&lt;/div&gt;&lt;div&gt;[C]회원은 게임을 구매할 수 있다.&lt;/div&gt;&lt;div&gt;[U]회원은 게임 구매 정보를 수정할 수 있다.&lt;/div&gt;&lt;div&gt;[C]회원은 게임 관련 정보(문의,후기)를 글을 쓸 수 있다.&lt;/div&gt;&lt;div&gt;[D]회원은 게임 구매 목록을 취소할 수 있다.&lt;/div&gt;&lt;div&gt;[C]회원은 게임을 찜할 수 있다.&lt;/div&gt;" style="rounded=0;whiteSpace=wrap;html=1;" vertex="1" parent="1">
          <mxGeometry x="-100" y="100" width="330" height="170" as="geometry" />
        </mxCell>
        <mxCell id="bRRaq2G4HIGHwIeF07wk-11" value="비회원&lt;div&gt;[R]비회원은 게임목록을 전체조회할 수 있다.&lt;/div&gt;&lt;div&gt;[R]비회원은 게임목록을 키워드조회할 수 있다.&lt;/div&gt;" style="rounded=0;whiteSpace=wrap;html=1;" vertex="1" parent="1">
          <mxGeometry x="490" y="100" width="300" height="140" as="geometry" />
        </mxCell>
        <mxCell id="bRRaq2G4HIGHwIeF07wk-12" value="판매자&lt;div&gt;[C]판매자는 게임을 등록할 수 있다.&lt;/div&gt;&lt;div&gt;[R]판매자는 등록된 게임 관련 정보를 조회할 수 있다.&lt;/div&gt;&lt;div&gt;[D]판매자는 등록된 판매 목록을 삭제할 수 있다.&lt;/div&gt;&lt;div&gt;[U]판매자는 등록된 게임 정보를 수정할 수 있다.&lt;/div&gt;&lt;div&gt;&lt;br&gt;&lt;/div&gt;" style="rounded=0;whiteSpace=wrap;html=1;" vertex="1" parent="1">
          <mxGeometry x="-160" y="800" width="400" height="170" as="geometry" />
        </mxCell>
        <mxCell id="bRRaq2G4HIGHwIeF07wk-13" value="관리자&lt;div&gt;[R] 관리자는 등록된 게임 목록(전체,키워드)를 조회할 수 있다.&lt;/div&gt;&lt;div&gt;&lt;div&gt;[U]관리자는 등록한 상품을 수정할 수 있다.&lt;/div&gt;&lt;div&gt;[D]관리자는 판매자가 등록한 상품을 삭제할 수 있다.&lt;/div&gt;&lt;div&gt;[C]관리자가 판매자를 대신해 상품을 등록할 수 있다.&lt;/div&gt;&lt;/div&gt;&lt;div&gt;[D]관리자는 회원이 올린 글을 삭제할 수 있다.&lt;/div&gt;&lt;div&gt;[C]관리자는 사이트 관련 글(이벤트,공지사항 등)을 올릴 수 있다.&lt;/div&gt;&lt;div&gt;[C]관리자는 홈페이지에 관련 URL을 등록할 수 있다.&lt;/div&gt;" style="rounded=0;whiteSpace=wrap;html=1;" vertex="1" parent="1">
          <mxGeometry x="610" y="810" width="370" height="170" as="geometry" />
        </mxCell>
        <mxCell id="bRRaq2G4HIGHwIeF07wk-14" value="&lt;div&gt;회원&lt;/div&gt;&lt;div&gt;&lt;br&gt;&lt;/div&gt;&lt;div&gt;개인정보 수정&lt;/div&gt;&lt;div&gt;마이페이지 조회&lt;/div&gt;&lt;div&gt;구매목록 조회&lt;/div&gt;&lt;div&gt;로그인&lt;/div&gt;&lt;div&gt;로그아웃&lt;/div&gt;&lt;div&gt;회원탈퇴&lt;/div&gt;" style="rounded=0;whiteSpace=wrap;html=1;" vertex="1" parent="1">
          <mxGeometry x="42.5" y="470" width="250" height="150" as="geometry" />
        </mxCell>
        <mxCell id="bRRaq2G4HIGHwIeF07wk-15" value="비회원&lt;div&gt;&lt;br&gt;&lt;/div&gt;&lt;div&gt;회원가입&lt;/div&gt;&lt;div&gt;개인정보 등록&lt;/div&gt;" style="rounded=0;whiteSpace=wrap;html=1;" vertex="1" parent="1">
          <mxGeometry x="540" y="485" width="150" height="100" as="geometry" />
        </mxCell>
        <mxCell id="bRRaq2G4HIGHwIeF07wk-16" value="인증" style="text;strokeColor=none;align=center;fillColor=none;html=1;verticalAlign=middle;whiteSpace=wrap;rounded=0;" vertex="1" parent="1">
          <mxGeometry x="330" y="370" width="130" height="50" as="geometry" />
        </mxCell>
      </root>
    </mxGraphModel>
  </diagram>
</mxfile>
